<?xml version="1.0" encoding="utf-8"?>
<!-- Generator: Adobe Illustrator 18.0.0, SVG Export Plug-In . SVG Version: 6.00 Build 0)  -->
<!DOCTYPE svg PUBLIC "-//W3C//DTD SVG 1.1//EN" "http://www.w3.org/Graphics/SVG/1.1/DTD/svg11.dtd">
<svg version="1.1" id="Layer_1" xmlns="http://www.w3.org/2000/svg" xmlns:xlink="http://www.w3.org/1999/xlink" x="0px" y="0px"
	 viewBox="0 0 283.5 283.5" enable-background="new 0 0 283.5 283.5" xml:space="preserve">
<g>
	<path fill="#00AEEF" d="M278.9,142c0-14-17.1-25.1-21.2-37.8c-4.3-13.1,2.9-32.1-5-43c-8-11-28.4-10.1-39.4-18.1
		c-10.9-7.9-16.2-27.6-29.3-31.9c-12.6-4.1-28.5,8.6-42.5,8.6c-14,0-29.8-12.7-42.5-8.6c-13.1,4.3-18.4,24-29.3,31.9
		c-11,8-31.4,7.1-39.4,18.1c-7.9,10.9-0.8,29.9-5,43C21.2,116.9,4.1,128,4.1,142c0,14,17.1,25.1,21.2,37.8c4.3,13.1-2.9,32.1,5,43
		c8,11,28.4,10.1,39.4,18.1c10.9,7.9,16.2,27.6,29.3,31.9c12.6,4.1,28.5-8.6,42.5-8.6c14,0,29.8,12.7,42.5,8.6
		c13.1-4.3,18.4-24,29.3-31.9c11-8,31.4-7.1,39.4-18.1c7.9-10.9,0.8-29.9,5-43C261.8,167.1,278.9,156,278.9,142z M244.5,104
		c2.2,6,3.9,12.2,5,18.5c0.3,1.6-0.8,3-2.3,3.3c-0.2,0-0.3,0-0.5,0c-1.4,0-2.6-1-2.8-2.4c-1.1-5.9-2.7-11.8-4.8-17.5
		c-0.5-1.5,0.2-3.1,1.7-3.7C242.3,101.8,244,102.5,244.5,104z M225.3,71.1c4.1,4.9,7.8,10.1,11,15.6c0.8,1.4,0.3,3.1-1,3.9
		c-0.5,0.3-1,0.4-1.4,0.4c-1,0-1.9-0.5-2.5-1.4c-3-5.2-6.6-10.2-10.5-14.8c-1-1.2-0.9-3,0.3-4C222.5,69.8,224.3,69.9,225.3,71.1z
		 M203,129.5c-1.5,0.5-3.1,0.6-4.7,0.3c-1.6-0.3-3.1-1-4.4-2c-2.5-1.9-4.3-4.5-5.4-7.7c-0.5-1.6-0.7-3.4-0.5-5.3
		c0.2-1.9,0.8-3.7,1.6-5.1c1.3-2.3,3.3-3.9,5.7-4.7c1.8-0.6,3.8-0.5,6.1,0.4l-2.8-8.4c-0.4-1.1-0.4-2.1,0-3c0.4-0.9,1.1-1.6,2.2-1.9
		c1-0.4,2-0.3,2.8,0.2c0.8,0.5,1.4,1.3,1.8,2.4l9,26.7c0.4,1.1,0.4,2.1,0.1,3.1c-0.3,0.9-1,1.6-2.1,2c-0.9,0.3-1.7,0.3-2.3,0
		c-0.7-0.3-1.3-0.8-2-1.6c-0.4,1.3-1,2.3-1.8,3C205.4,128.4,204.3,129,203,129.5z M163.9,224.2c-0.1,1.1-0.5,2-1.6,2.3
		c-1.1,0.3-1.9-0.2-2.6-1c-4.2-4.5-8.6-8.9-13.3-12.9c-5.1-4.5-10.7-8.3-16.7-11.5c-1.1-0.6-1.4-1.6-1.4-2.7c0-1.8,1.2-3.3,3-3.9
		c0.3-0.1,0.6-0.2,1-0.2c2.3-0.6,4.5-0.4,6.8-0.2c4.4,0.5,8.8,1.4,13.1,2.5c0.4,0.1,0.6,0.1,0.7-0.3c2.5-5.1,5.1-10.2,7.8-15.1
		c4.6-8.4,9.3-16.7,14.9-24.5c2.2-3.1,4.6-6.2,7.5-8.7c1.3-1.1,2.8-2,4.5-2.3c1.7-0.3,3.2,0.4,3.8,1.8c0.3,0.7,0.3,1.5,0,2.2
		c-0.5,1.6-1.4,3-2.3,4.5c-2.9,4.6-5.7,9.2-8.2,14c-3.6,6.9-6.6,14.1-9.1,21.4C168.1,200.8,165.5,212.4,163.9,224.2z M116.3,142.5
		l3.6,10.6c0.4,1.1,0.4,2.1,0,3c-0.4,0.9-1.1,1.6-2.2,1.9c-1,0.3-2,0.3-2.8-0.3c-0.9-0.5-1.5-1.3-1.8-2.4l-5.5-16.3
		c-0.4-1.1-0.4-2.1-0.1-3.1c0.3-1,1-1.6,2-2c1.6-0.5,3-0.1,4.1,1.2c0.7-1.2,1.4-2.2,2.2-2.9c0.8-0.7,1.9-1.3,3.2-1.7
		c2.4-0.8,4.6-0.8,6.7,0c1.2,0.5,2.2,1.2,2.9,2.1c0.7,0.9,1.3,2.1,1.8,3.6l4,11.9c0.4,1.1,0.4,2.1,0,3c-0.4,0.9-1.1,1.6-2.2,1.9
		c-1,0.3-2,0.3-2.8-0.3c-0.9-0.5-1.5-1.3-1.8-2.4l-3.5-10.3c-0.4-1.2-1.1-2.1-2.1-2.7c-1-0.6-2.1-0.7-3.3-0.3
		c-0.7,0.2-1.3,0.6-1.7,1.2c-0.4,0.6-0.7,1.2-0.8,1.9C116,141.1,116.1,141.8,116.3,142.5z M93.1,165.3c-1.8-0.2-3.5-0.7-4.9-1.7
		c-1.6-1.1-2.8-2.8-3.6-5.1L81,147.8c-0.4-1.1-0.4-2.1,0-3c0.4-0.9,1.1-1.6,2.1-1.9c1.1-0.4,2-0.3,2.9,0.2c0.9,0.5,1.5,1.3,1.8,2.4
		l3.4,10c0.4,1.3,1.1,2.1,2,2.6c1,0.5,2,0.6,3.1,0.2c1-0.3,1.8-1,2.3-2c0.5-0.9,0.5-2,0.1-3.3l-3.4-10c-0.4-1.1-0.4-2.1,0-3
		c0.4-0.9,1.1-1.6,2.2-1.9c1-0.4,2-0.3,2.8,0.2c0.8,0.5,1.4,1.3,1.8,2.4l3.7,10.8c0.8,2.4,0.9,4.5,0.2,6.2c-0.6,1.6-1.5,3.1-2.9,4.3
		c-1.4,1.2-2.9,2.1-4.6,2.7C96.7,165.3,94.9,165.5,93.1,165.3z M62.7,156.3c-0.8-0.3-1.4-1-1.8-2c-0.3-0.9-0.2-1.8,0.2-2.6
		c0.5-0.8,1.2-1.3,2.2-1.6l1-0.3l-1.1-3.4c-0.7-2.2-0.6-4.2,0.5-6.1c0.9-1.7,2.3-2.8,4.2-3.4c2.8-1,4.6-0.4,5.3,1.6
		c0.3,0.8,0.3,1.6,0,2.3c-0.3,0.7-0.8,1.2-1.6,1.6c-0.7,0.3-1.1,0.6-1.3,0.9c-0.2,0.4-0.2,0.9,0,1.5l0.9,2.6l1.9-0.6
		c1-0.3,1.9-0.3,2.7,0c0.8,0.3,1.4,1,1.7,1.9c0.3,1,0.2,1.8-0.2,2.6c-0.5,0.8-1.2,1.3-2.2,1.7l-1.9,0.6l4.6,13.6
		c0.4,1.1,0.4,2.1,0,3c-0.4,0.9-1.1,1.6-2.1,1.9c-1,0.4-2,0.3-2.9-0.3c-0.9-0.5-1.5-1.3-1.8-2.4l-4.6-13.6l-1,0.3
		C64.5,156.6,63.6,156.6,62.7,156.3z M76.9,125.2l-10.1-13.7l2.8,16.2c0.2,1.1,0,2.1-0.5,2.9c-0.5,0.8-1.3,1.4-2.4,1.8
		c-1,0.3-1.8,0.2-2.6-0.5c-0.8-0.6-1.4-1.6-1.8-3l-4-24.6c-0.2-1.4-0.1-2.5,0.4-3.3c0.7-1.1,1.6-1.8,2.8-2.2
		c1.1-0.4,2.1-0.4,3.2-0.2c1,0.2,1.8,0.8,2.5,1.7l10.6,14.2l-0.4-16.9c0-1.2,0.3-2.2,0.9-3.2c0.6-1,1.4-1.6,2.5-2
		c1.2-0.4,2.3-0.4,3.5,0c1.2,0.4,2,1.1,2.5,2.1l12.1,22.2c1,3,0.6,4.9-1.3,5.5c-1.7,0.6-2.9,0.5-3.8-0.1c-0.7-0.5-1.3-1.3-1.9-2.6
		l-7.3-13.7l0.5,16c0,1.1,0,2,0,2.6c-0.1,0.6-0.3,1.2-0.7,1.8c-0.4,0.5-1.1,0.9-2,1.3c-1.1,0.4-2,0.4-2.8,0S77.6,126.2,76.9,125.2z
		 M105.7,116.3c-3.5-1.5-5.9-4.2-7.3-8.3c-1.3-3.7-1.1-7.2,0.5-10.3c1.4-2.8,3.4-4.6,6-5.5c1.2-0.4,2.4-0.6,3.4-0.4
		c1,0.1,2.2,0.5,3.4,1.1c0.1-1.9,1-3.1,2.5-3.6c1-0.3,1.9-0.3,2.8,0.2c0.9,0.4,1.5,1.2,1.8,2.1l5.6,16.6c0.4,1.1,0.4,2.2,0,3.2
		c-0.4,1-1.1,1.7-2.2,2c-1.6,0.5-3,0-4.2-1.6c-0.5,1.3-1.1,2.3-1.8,3c-0.7,0.7-1.7,1.3-2.9,1.7C110.8,117.5,108.3,117.4,105.7,116.3
		z M148.3,97.6c1.3,0.9,2.1,1.7,2.3,2.3c0.3,1,0.3,1.9,0,2.8c-0.3,0.9-0.9,1.5-1.8,1.8c-1.4,0.5-2.7,0.3-3.8-0.5l-11-7.3l2.6,7.7
		c0.4,1.1,0.4,2.1,0,3c-0.4,0.9-1.1,1.6-2.1,1.9c-1,0.3-2,0.3-2.8-0.3c-0.9-0.5-1.5-1.3-1.8-2.4l-9-26.8c-0.2-0.7-0.3-1.3-0.2-2
		c0.1-0.7,0.3-1.3,0.7-1.8c0.4-0.5,1-0.9,1.6-1.1c1.1-0.4,2-0.3,2.9,0.2c0.9,0.5,1.5,1.3,1.8,2.4l4.9,14.5l4.4-9.2
		c0.5-1,1.4-1.7,2.7-2.2c0.6-0.2,1.2-0.1,1.9,0.2c0.7,0.3,1.2,0.7,1.6,1.3c0.2,0.3,0.3,0.6,0.4,0.8c0.3,1,0.2,2.1-0.4,3.1l-3.3,6.2
		L148.3,97.6z M161.9,92.5c1.2,0.4,2.4,0.4,3.6,0c1.3-0.4,2.5-1.2,3.5-2.2l1.6-1.6c0.3-0.3,0.7-0.5,1.2-0.8c0.5-0.2,1-0.2,1.5-0.1
		c0.5,0.1,1,0.3,1.4,0.7c0.4,0.3,0.7,0.8,0.9,1.2c0.4,1.3-0.1,2.7-1.6,4.4c-1.8,2-4.1,3.5-7,4.5c-1.9,0.6-3.8,0.9-5.7,0.7
		c-1.9-0.2-3.7-0.8-5.4-1.8c-2.4-1.5-4.1-3.9-5.2-7.1c-0.7-2.2-0.9-4.4-0.5-6.6c0.4-2.2,1.3-4.2,2.8-5.8c1.4-1.7,3.2-2.9,5.4-3.6
		c2.1-0.7,4.1-0.8,6.2-0.4c2.1,0.4,3.9,1.4,5.5,2.8c1.6,1.4,2.7,3.1,3.4,5.2c0.4,1.1,0.4,1.9,0.1,2.6c-0.3,0.6-0.9,1.1-2,1.5
		l-12.7,4.3C159.8,91.4,160.8,92.2,161.9,92.5z M185.2,65.3c1-0.3,1.9-0.3,2.8,0.1c0.9,0.4,1.5,1.1,1.8,2c0.3,1,0.3,1.8-0.1,2.4
		c-0.4,0.6-1.2,1.3-2.2,2.1c-1.5,1.1-2.5,2.1-3,2.9c-0.5,0.8-0.6,1.8-0.1,3.1l3.1,9.3c0.4,1.1,0.4,2.1,0,3c-0.4,0.9-1.1,1.6-2.2,1.9
		c-1,0.3-2,0.3-2.8-0.3c-0.9-0.5-1.5-1.3-1.8-2.4l-5.5-16.4c-0.4-1.2-0.4-2.2-0.1-3c0.4-1,1.1-1.7,2.1-2c1.6-0.5,3-0.1,4.3,1.2
		C182.5,67.1,183.8,65.8,185.2,65.3z M186.1,133c-1.8,2-4.1,3.5-7,4.5c-1.9,0.6-3.8,0.9-5.7,0.7c-1.9-0.2-3.7-0.8-5.4-1.8
		c-2.4-1.5-4.1-3.9-5.2-7.1c-0.7-2.2-0.9-4.4-0.5-6.6c0.4-2.2,1.3-4.2,2.8-5.8c1.4-1.7,3.2-2.9,5.4-3.6c2.1-0.7,4.1-0.8,6.2-0.4
		c2.1,0.4,3.9,1.4,5.5,2.8c1.6,1.4,2.7,3.1,3.4,5.2c0.4,1.1,0.4,1.9,0.1,2.6c-0.3,0.6-0.9,1.1-2,1.5l-12.7,4.3c0.9,1.2,1.9,2,3,2.3
		c1.2,0.4,2.4,0.4,3.6,0c1.3-0.4,2.5-1.2,3.5-2.2l1.6-1.6c0.3-0.3,0.7-0.5,1.2-0.8c0.5-0.2,1-0.2,1.5-0.1c0.5,0.1,1,0.3,1.4,0.7
		c0.4,0.3,0.7,0.8,0.9,1.2C188.1,129.9,187.6,131.4,186.1,133z M145.6,114.6c-0.4-1.1-0.4-2.1,0-3c0.4-0.9,1.1-1.6,2.2-1.9
		c1-0.4,2-0.3,2.8,0.2c0.8,0.5,1.4,1.3,1.8,2.4l9,26.7c0.4,1.1,0.4,2.1,0.1,3.1c-0.3,0.9-1,1.6-2.1,2c-0.9,0.3-1.7,0.3-2.3,0
		c-0.7-0.3-1.3-0.8-2-1.6c-0.4,1.3-1,2.3-1.8,3s-1.9,1.4-3.2,1.8c-1.5,0.5-3.1,0.6-4.7,0.3c-1.6-0.3-3.1-1-4.4-2
		c-2.5-1.9-4.3-4.5-5.4-7.7c-0.5-1.6-0.7-3.4-0.5-5.3c0.2-1.9,0.7-3.7,1.6-5.1c1.3-2.3,3.3-3.9,5.7-4.7c1.8-0.6,3.8-0.5,6.1,0.4
		L145.6,114.6z M196,46.7c5.5,3.2,10.8,6.8,15.7,10.9c1.2,1,1.4,2.8,0.4,4c-0.6,0.7-1.4,1-2.2,1c-0.6,0-1.3-0.2-1.8-0.7
		c-4.6-3.9-9.6-7.4-14.9-10.4c-1.4-0.8-1.8-2.5-1.1-3.9C192.9,46.4,194.7,46,196,46.7z M160.2,33.8c6.3,1.1,12.5,2.7,18.5,4.9
		c1.5,0.5,2.3,2.2,1.7,3.7c-0.4,1.2-1.5,1.9-2.7,1.9c-0.3,0-0.6-0.1-1-0.2c-5.7-2-11.6-3.6-17.5-4.6c-1.6-0.3-2.6-1.7-2.3-3.3
		C157.2,34.6,158.6,33.6,160.2,33.8z M122.1,34c6.2-1.1,12.6-1.7,19-1.7c0,0,0,0,0,0c1.6,0,2.9,1.3,2.9,2.9c0,1.6-1.3,2.9-2.9,2.9
		c-6.1,0-12.1,0.6-18.1,1.6c-0.2,0-0.3,0-0.5,0c-1.4,0-2.6-1-2.8-2.4C119.5,35.7,120.5,34.2,122.1,34z M86.3,47.1
		c5.5-3.2,11.3-5.9,17.3-8.1c1.5-0.5,3.1,0.2,3.7,1.7c0.5,1.5-0.2,3.1-1.7,3.7C100,46.4,94.4,49,89.2,52c-0.5,0.3-0.9,0.4-1.4,0.4
		c-1,0-1.9-0.5-2.5-1.4C84.5,49.6,85,47.9,86.3,47.1z M57.2,71.7c4.1-4.9,8.6-9.4,13.5-13.6c1.2-1,3-0.9,4,0.3c1,1.2,0.9,3-0.3,4
		c-4.6,3.9-8.9,8.2-12.8,12.9c-0.6,0.7-1.4,1-2.2,1c-0.6,0-1.3-0.2-1.8-0.7C56.4,74.7,56.2,72.9,57.2,71.7z M38.3,104.7
		c2.2-6,4.9-11.8,8.1-17.4c0.8-1.4,2.5-1.8,3.9-1.1c1.4,0.8,1.8,2.5,1.1,3.9c-3,5.2-5.6,10.8-7.6,16.4c-0.4,1.2-1.5,1.9-2.7,1.9
		c-0.3,0-0.7-0.1-1-0.2C38.5,107.8,37.7,106.2,38.3,104.7z M31.8,142.2V142c0-6.3,0.5-12.6,1.6-18.8c0.3-1.6,1.7-2.6,3.3-2.3
		c1.6,0.3,2.6,1.8,2.3,3.3c-1,5.8-1.5,11.8-1.5,17.8v0.2c0,1.6-1.3,2.9-2.9,2.9C33,145.1,31.8,143.8,31.8,142.2z M41.1,181.6
		c-1.2,0-2.3-0.7-2.7-1.9c-2.2-6-3.9-12.2-5-18.5c-0.3-1.6,0.8-3,2.3-3.3c1.6-0.3,3,0.8,3.3,2.3c1.1,5.9,2.6,11.8,4.7,17.5
		c0.5,1.5-0.2,3.1-1.7,3.7C41.8,181.6,41.4,181.6,41.1,181.6z M59.7,213.7c-0.8,0-1.6-0.3-2.2-1c-4.1-4.9-7.8-10.1-11-15.6
		c-0.8-1.4-0.3-3.1,1-3.9c1.4-0.8,3.1-0.3,3.9,1c3,5.2,6.5,10.2,10.4,14.8c1,1.2,0.9,3-0.3,4C61,213.5,60.4,213.7,59.7,213.7z
		 M88.2,237.5c-0.5,0-1-0.1-1.4-0.4c-5.5-3.2-10.8-6.9-15.7-11c-1.2-1-1.4-2.8-0.4-4c1-1.2,2.8-1.4,4-0.4c4.6,3.9,9.6,7.4,14.9,10.4
		c1.4,0.8,1.8,2.5,1.1,3.9C90.1,237,89.2,237.5,88.2,237.5z M123.1,250.2c-0.2,0-0.3,0-0.5,0c-6.3-1.1-12.5-2.7-18.5-4.9
		c-1.5-0.5-2.3-2.2-1.7-3.7c0.5-1.5,2.2-2.3,3.7-1.7c5.7,2.1,11.6,3.6,17.5,4.7c1.6,0.3,2.6,1.8,2.3,3.3
		C125.6,249.2,124.4,250.2,123.1,250.2z M160.7,250.1c-6.2,1.1-12.6,1.7-19,1.7c0,0,0,0,0,0c-1.6,0-2.9-1.3-2.9-2.9
		c0-1.6,1.3-2.9,2.9-2.9c6.1,0,12.1-0.5,18.1-1.6c1.6-0.3,3,0.8,3.3,2.3C163.3,248.3,162.2,249.8,160.7,250.1z M196.4,237
		c-5.5,3.2-11.3,5.9-17.3,8.1c-0.3,0.1-0.7,0.2-1,0.2c-1.2,0-2.3-0.7-2.7-1.9c-0.5-1.5,0.2-3.1,1.7-3.7c5.7-2.1,11.2-4.6,16.4-7.7
		c1.4-0.8,3.1-0.3,3.9,1C198.3,234.5,197.8,236.2,196.4,237z M225.6,212.5c-4.1,4.9-8.6,9.4-13.5,13.5c-0.5,0.5-1.2,0.7-1.8,0.7
		c-0.8,0-1.6-0.3-2.2-1c-1-1.2-0.9-3,0.3-4c4.6-3.9,8.9-8.2,12.8-12.8c1-1.2,2.8-1.4,4-0.4C226.5,209.5,226.6,211.3,225.6,212.5z
		 M244.7,179.5c-2.2,6-4.9,11.8-8.1,17.3c-0.5,0.9-1.5,1.4-2.5,1.4c-0.5,0-1-0.1-1.4-0.4c-1.4-0.8-1.8-2.5-1-3.9
		c3-5.2,5.6-10.8,7.7-16.4c0.5-1.5,2.2-2.2,3.7-1.7C244.4,176.4,245.2,178,244.7,179.5z M249.6,161c-0.2,1.4-1.5,2.4-2.8,2.4
		c-0.2,0-0.3,0-0.5,0c-1.6-0.3-2.6-1.8-2.3-3.3c1-5.9,1.6-12,1.6-18.1l0-0.5c0-1.6,1.3-2.9,2.9-2.9s2.9,1.3,2.9,2.9l0,0.4
		C251.2,148.4,250.7,154.8,249.6,161z"/>
	<path fill="#00AEEF" d="M111.7,110.1c1-0.3,1.8-0.9,2.4-1.7c0.6-0.8,0.9-1.7,1-2.7c0.1-1,0-2-0.3-2.9c-0.6-1.8-1.5-3.1-2.7-3.9
		c-1.2-0.9-2.6-1-4.3-0.5c-1.4,0.5-2.3,1.4-2.7,2.9c-0.4,1.5-0.4,2.9,0.1,4.4c0.5,1.6,1.4,2.9,2.5,3.8
		C108.9,110.4,110.2,110.6,111.7,110.1z"/>
	<path fill="#00AEEF" d="M172.2,118.8c-2.1,0.7-3.1,2.6-3.1,5.8l9.2-3.1C176.6,118.9,174.5,118,172.2,118.8z"/>
	<path fill="#00AEEF" d="M142.9,130.2c-0.5,0.8-0.8,1.7-0.9,2.8c-0.1,1,0.1,2,0.4,3c0.5,1.5,1.4,2.7,2.6,3.6s2.6,1.1,4.1,0.6
		c1-0.3,1.7-0.9,2.2-1.7c0.5-0.8,0.8-1.7,0.8-2.8c0-1-0.1-2-0.4-3c-0.3-0.9-0.8-1.8-1.5-2.6c-0.7-0.8-1.4-1.4-2.3-1.7
		c-0.9-0.3-1.8-0.4-2.8,0C144.2,128.8,143.4,129.3,142.9,130.2z"/>
	<path fill="#00AEEF" d="M160.2,79.9c-2.1,0.7-3.1,2.6-3.1,5.8l9.2-3.1C164.6,80,162.5,79.1,160.2,79.9z"/>
	<path fill="#00AEEF" d="M203.2,112.3c-0.7-0.8-1.4-1.4-2.3-1.7c-0.9-0.3-1.8-0.4-2.8,0c-1,0.3-1.8,0.9-2.3,1.7
		c-0.5,0.8-0.8,1.7-0.9,2.8c-0.1,1,0.1,2,0.4,3c0.5,1.5,1.4,2.7,2.6,3.6c1.3,0.9,2.6,1.1,4.1,0.6c1-0.3,1.7-0.9,2.2-1.7
		c0.5-0.8,0.8-1.7,0.8-2.8c0-1-0.1-2-0.4-3C204.4,114,203.9,113.1,203.2,112.3z"/>
	<path fill="#FFFFFF" d="M87.8,52.4c0.5,0,1-0.1,1.4-0.4c5.2-3,10.7-5.6,16.4-7.7c1.5-0.5,2.2-2.2,1.7-3.7c-0.5-1.5-2.2-2.2-3.7-1.7
		c-6,2.2-11.8,4.9-17.3,8.1c-1.4,0.8-1.8,2.5-1,3.9C85.8,51.9,86.8,52.4,87.8,52.4z"/>
	<path fill="#FFFFFF" d="M122.6,39.6c0.2,0,0.3,0,0.5,0c5.9-1.1,12-1.6,18.1-1.6c1.6,0,2.9-1.3,2.9-2.9c0-1.6-1.3-2.9-2.9-2.9
		c0,0,0,0,0,0c-6.4,0-12.8,0.6-19,1.7c-1.6,0.3-2.6,1.8-2.3,3.3C120,38.7,121.2,39.6,122.6,39.6z"/>
	<path fill="#FFFFFF" d="M59.4,76.4c0.8,0,1.6-0.3,2.2-1c3.9-4.6,8.2-9,12.8-12.9c1.2-1,1.4-2.8,0.3-4c-1-1.2-2.8-1.4-4-0.3
		c-4.9,4.1-9.4,8.7-13.5,13.6c-1,1.2-0.9,3,0.4,4C58.1,76.2,58.8,76.4,59.4,76.4z"/>
	<path fill="#FFFFFF" d="M37.5,142.2V142c0-6,0.5-12,1.5-17.8c0.3-1.6-0.8-3-2.3-3.3c-1.6-0.3-3,0.8-3.3,2.3
		c-1.1,6.2-1.6,12.5-1.6,18.8v0.2c0,1.6,1.3,2.9,2.9,2.9C36.2,145.1,37.5,143.8,37.5,142.2z"/>
	<path fill="#FFFFFF" d="M159.7,244.4c-5.9,1-12,1.6-18.1,1.6c-1.6,0-2.9,1.3-2.9,2.9c0,1.6,1.3,2.9,2.9,2.9c0,0,0,0,0,0
		c6.4,0,12.8-0.6,19-1.7c1.6-0.3,2.6-1.8,2.3-3.3C162.7,245.2,161.2,244.2,159.7,244.4z"/>
	<path fill="#FFFFFF" d="M40,108.4c0.3,0.1,0.7,0.2,1,0.2c1.2,0,2.3-0.7,2.7-1.9c2.1-5.7,4.6-11.2,7.6-16.4c0.8-1.4,0.3-3.1-1.1-3.9
		c-1.4-0.8-3.1-0.3-3.9,1.1c-3.2,5.5-5.9,11.4-8.1,17.4C37.7,106.2,38.5,107.8,40,108.4z"/>
	<path fill="#FFFFFF" d="M243,175.8c-1.5-0.5-3.1,0.2-3.7,1.7c-2.1,5.7-4.6,11.2-7.7,16.4c-0.8,1.4-0.3,3.1,1,3.9
		c0.5,0.3,0.9,0.4,1.4,0.4c1,0,1.9-0.5,2.5-1.4c3.2-5.5,5.9-11.4,8.1-17.3C245.2,178,244.4,176.4,243,175.8z"/>
	<path fill="#FFFFFF" d="M193.6,232.1c-5.2,3-10.7,5.6-16.4,7.7c-1.5,0.5-2.2,2.2-1.7,3.7c0.4,1.2,1.5,1.9,2.7,1.9
		c0.3,0,0.7-0.1,1-0.2c6-2.2,11.8-4.9,17.3-8.1c1.4-0.8,1.8-2.5,1-3.9C196.7,231.7,194.9,231.3,193.6,232.1z"/>
	<path fill="#FFFFFF" d="M248.4,138.7c-1.6,0-2.9,1.3-2.9,2.9l0,0.5c0,6.1-0.5,12.1-1.6,18.1c-0.3,1.6,0.8,3,2.3,3.3
		c0.2,0,0.3,0,0.5,0c1.4,0,2.6-1,2.8-2.4c1.1-6.2,1.6-12.7,1.6-19.1l0-0.4C251.2,140,250,138.7,248.4,138.7z"/>
	<path fill="#FFFFFF" d="M221.2,208.8c-3.9,4.6-8.2,8.9-12.8,12.8c-1.2,1-1.4,2.8-0.3,4c0.6,0.7,1.4,1,2.2,1c0.7,0,1.3-0.2,1.8-0.7
		c4.9-4.1,9.4-8.6,13.5-13.5c1-1.2,0.9-3-0.4-4C224,207.5,222.2,207.6,221.2,208.8z"/>
	<path fill="#FFFFFF" d="M123.6,244.5c-5.9-1-11.8-2.6-17.5-4.7c-1.5-0.5-3.1,0.2-3.7,1.7c-0.5,1.5,0.2,3.1,1.7,3.7
		c6,2.2,12.2,3.8,18.5,4.9c0.2,0,0.3,0,0.5,0c1.4,0,2.6-1,2.8-2.4C126.2,246.2,125.1,244.8,123.6,244.5z"/>
	<path fill="#FFFFFF" d="M89.6,232.2c-5.2-3-10.2-6.5-14.9-10.4c-1.2-1-3-0.9-4,0.4c-1,1.2-0.9,3,0.4,4c4.9,4.1,10.2,7.8,15.7,11
		c0.4,0.3,0.9,0.4,1.4,0.4c1,0,2-0.5,2.5-1.4C91.5,234.7,91,233,89.6,232.2z"/>
	<path fill="#FFFFFF" d="M159.2,39.5c6,1,11.8,2.6,17.5,4.6c0.3,0.1,0.6,0.2,1,0.2c1.2,0,2.3-0.7,2.7-1.9c0.5-1.5-0.2-3.1-1.7-3.7
		c-6-2.2-12.2-3.8-18.5-4.9c-1.6-0.3-3,0.8-3.3,2.3C156.6,37.7,157.7,39.2,159.2,39.5z"/>
	<path fill="#FFFFFF" d="M61.9,209c-3.9-4.6-7.4-9.6-10.4-14.8c-0.8-1.4-2.5-1.8-3.9-1c-1.4,0.8-1.8,2.5-1,3.9
		c3.2,5.5,6.9,10.8,11,15.6c0.6,0.7,1.4,1,2.2,1c0.7,0,1.3-0.2,1.8-0.7C62.8,212,62.9,210.2,61.9,209z"/>
	<path fill="#FFFFFF" d="M43.8,177.8c-2.1-5.7-3.7-11.5-4.7-17.5c-0.3-1.6-1.8-2.6-3.3-2.3c-1.6,0.3-2.6,1.8-2.3,3.3
		c1.1,6.3,2.8,12.5,5,18.5c0.4,1.2,1.5,1.9,2.7,1.9c0.3,0,0.7-0.1,1-0.2C43.6,180.9,44.3,179.3,43.8,177.8z"/>
	<path fill="#FFFFFF" d="M220.9,74.8c3.9,4.6,7.4,9.6,10.5,14.8c0.5,0.9,1.5,1.4,2.5,1.4c0.5,0,1-0.1,1.4-0.4c1.4-0.8,1.8-2.6,1-3.9
		c-3.2-5.5-6.9-10.7-11-15.6c-1-1.2-2.8-1.4-4-0.3C220.1,71.8,219.9,73.6,220.9,74.8z"/>
	<path fill="#FFFFFF" d="M239.1,106c2.1,5.7,3.7,11.5,4.8,17.5c0.2,1.4,1.5,2.4,2.8,2.4c0.2,0,0.3,0,0.5,0c1.6-0.3,2.6-1.8,2.3-3.3
		c-1.1-6.3-2.8-12.5-5-18.5c-0.5-1.5-2.2-2.2-3.7-1.7C239.3,102.9,238.6,104.5,239.1,106z"/>
	<path fill="#FFFFFF" d="M193.2,51.7c5.2,3,10.2,6.5,14.9,10.4c0.5,0.4,1.2,0.7,1.8,0.7c0.8,0,1.6-0.4,2.2-1c1-1.2,0.8-3-0.4-4
		c-4.9-4.1-10.2-7.8-15.7-10.9c-1.4-0.8-3.1-0.3-3.9,1.1C191.3,49.2,191.8,50.9,193.2,51.7z"/>
	<path fill="#FFFFFF" d="M82,127.2c0.9-0.3,1.6-0.7,2-1.3c0.4-0.5,0.6-1.1,0.7-1.8c0.1-0.6,0.1-1.5,0-2.6l-0.5-16l7.3,13.7
		c0.6,1.2,1.2,2.1,1.9,2.6c0.9,0.6,2.2,0.7,3.8,0.1c1.9-0.6,2.4-2.5,1.3-5.5L86.5,94.4c-0.5-1.1-1.4-1.8-2.5-2.1
		c-1.2-0.4-2.3-0.3-3.5,0c-1.1,0.4-1.9,1-2.5,2c-0.6,1-0.9,2-0.9,3.2l0.4,16.9l-10.6-14.2c-0.6-0.9-1.5-1.5-2.5-1.7
		c-1-0.2-2.1-0.1-3.2,0.2c-1.2,0.4-2.1,1.1-2.8,2.2c-0.5,0.9-0.6,2-0.4,3.3l4,24.6c0.5,1.4,1.1,2.4,1.8,3c0.8,0.6,1.6,0.8,2.6,0.5
		c1.1-0.4,1.9-1,2.4-1.8c0.5-0.8,0.7-1.8,0.5-2.9l-2.8-16.2l10.1,13.7c0.7,1,1.5,1.7,2.3,2S80.9,127.6,82,127.2z"/>
	<path fill="#FFFFFF" d="M113.2,116.7c1.3-0.4,2.2-1,2.9-1.7c0.7-0.7,1.3-1.7,1.8-3c1.2,1.6,2.6,2.1,4.2,1.6c1.1-0.4,1.8-1,2.2-2
		c0.4-1,0.4-2.1,0-3.2l-5.6-16.6c-0.3-1-0.9-1.7-1.8-2.1c-0.9-0.4-1.8-0.5-2.8-0.2c-1.5,0.5-2.3,1.7-2.5,3.6c-1.2-0.6-2.4-1-3.4-1.1
		c-1-0.1-2.1,0-3.4,0.4c-2.6,0.9-4.6,2.7-6,5.5c-1.6,3.1-1.8,6.6-0.5,10.3c1.4,4,3.8,6.8,7.3,8.3
		C108.3,117.4,110.8,117.5,113.2,116.7z M105.2,105.7c-0.5-1.5-0.5-2.9-0.1-4.4c0.4-1.5,1.3-2.4,2.7-2.9c1.7-0.6,3.1-0.4,4.3,0.5
		c1.2,0.9,2.1,2.2,2.7,3.9c0.3,1,0.4,1.9,0.3,2.9c-0.1,1-0.4,1.9-1,2.7c-0.6,0.8-1.4,1.4-2.4,1.7c-1.5,0.5-2.8,0.3-4-0.7
		C106.6,108.5,105.7,107.3,105.2,105.7z"/>
	<path fill="#FFFFFF" d="M143.5,83c-0.1-0.2-0.2-0.4-0.4-0.8c-0.4-0.5-0.9-1-1.6-1.3c-0.7-0.3-1.3-0.4-1.9-0.2
		c-1.4,0.5-2.3,1.2-2.7,2.2l-4.4,9.2l-4.9-14.5c-0.4-1.1-1-1.8-1.8-2.4c-0.9-0.5-1.8-0.6-2.9-0.2c-0.7,0.2-1.2,0.6-1.6,1.1
		c-0.4,0.5-0.6,1.1-0.7,1.8c-0.1,0.7,0,1.3,0.2,2l9,26.8c0.4,1.1,1,1.9,1.8,2.4c0.9,0.5,1.8,0.6,2.8,0.3c1.1-0.4,1.8-1,2.1-1.9
		c0.4-0.9,0.4-1.9,0-3l-2.6-7.7l11,7.3c1.1,0.8,2.4,1,3.8,0.5c0.9-0.3,1.5-0.9,1.8-1.8c0.3-0.9,0.3-1.8,0-2.8
		c-0.2-0.6-1-1.4-2.3-2.3l-8.5-5.4l3.3-6.2C143.7,85,143.8,84,143.5,83z"/>
	<path fill="#FFFFFF" d="M173.6,84.5c0.3-0.6,0.2-1.5-0.1-2.6c-0.7-2-1.8-3.7-3.4-5.2c-1.6-1.4-3.4-2.4-5.5-2.8
		c-2.1-0.4-4.1-0.3-6.2,0.4c-2.2,0.7-4,1.9-5.4,3.6c-1.4,1.7-2.4,3.6-2.8,5.8c-0.4,2.2-0.2,4.4,0.5,6.6c1.1,3.3,2.8,5.6,5.2,7.1
		c1.7,1,3.5,1.6,5.4,1.8c1.9,0.2,3.8-0.1,5.7-0.7c2.9-1,5.2-2.5,7-4.5c1.5-1.7,2-3.1,1.6-4.4c-0.2-0.5-0.4-0.9-0.9-1.2
		c-0.4-0.3-0.9-0.6-1.4-0.7c-0.5-0.1-1.1-0.1-1.5,0.1c-0.5,0.2-0.9,0.5-1.2,0.8l-1.6,1.6c-1,1-2.2,1.8-3.5,2.2
		c-1.2,0.4-2.4,0.4-3.6,0c-1.1-0.3-2.1-1.1-3-2.3l12.7-4.3C172.6,85.6,173.3,85.1,173.6,84.5z M157.1,85.7c0-3.2,1-5.1,3.1-5.8
		c2.4-0.8,4.4,0.1,6.1,2.7L157.1,85.7z"/>
	<path fill="#FFFFFF" d="M177.1,68.2c-1,0.3-1.6,1-2.1,2c-0.4,0.8-0.3,1.8,0.1,3l5.5,16.4c0.4,1.1,1,1.9,1.8,2.4
		c0.9,0.5,1.8,0.6,2.8,0.3c1.1-0.4,1.8-1,2.2-1.9c0.4-0.9,0.4-1.9,0-3l-3.1-9.3c-0.4-1.3-0.4-2.3,0.1-3.1c0.5-0.8,1.6-1.8,3-2.9
		c1.1-0.8,1.8-1.5,2.2-2.1c0.4-0.6,0.5-1.4,0.1-2.4c-0.3-0.9-0.9-1.6-1.8-2c-0.9-0.4-1.9-0.4-2.8-0.1c-1.4,0.5-2.7,1.8-3.7,4.1
		C180.2,68,178.7,67.6,177.1,68.2z"/>
	<path fill="#FFFFFF" d="M71,169.5c0.4,1.1,1,1.9,1.8,2.4c0.9,0.5,1.8,0.6,2.9,0.3c1.1-0.4,1.8-1,2.1-1.9c0.4-0.9,0.4-1.9,0-3
		l-4.6-13.6l1.9-0.6c1-0.3,1.7-0.9,2.2-1.7c0.5-0.8,0.6-1.7,0.2-2.6c-0.3-1-0.9-1.6-1.7-1.9c-0.8-0.3-1.7-0.3-2.7,0l-1.9,0.6
		l-0.9-2.6c-0.2-0.7-0.2-1.2,0-1.5c0.2-0.4,0.6-0.7,1.3-0.9c0.8-0.3,1.3-0.9,1.6-1.6c0.3-0.7,0.3-1.5,0-2.3c-0.7-2-2.5-2.6-5.3-1.6
		c-1.9,0.6-3.3,1.8-4.2,3.4c-1.1,1.8-1.2,3.9-0.5,6.1l1.1,3.4l-1,0.3c-1,0.3-1.7,0.9-2.2,1.6c-0.5,0.8-0.6,1.6-0.2,2.6
		c0.3,1,0.9,1.6,1.8,2c0.8,0.3,1.8,0.3,2.7,0l1-0.3L71,169.5z"/>
	<path fill="#FFFFFF" d="M106,157.7c0.7-1.7,0.6-3.8-0.2-6.2l-3.7-10.8c-0.4-1.1-1-1.9-1.8-2.4c-0.8-0.5-1.8-0.6-2.8-0.2
		c-1.1,0.4-1.8,1-2.2,1.9c-0.4,0.9-0.4,1.9,0,3l3.4,10c0.4,1.3,0.4,2.4-0.1,3.3c-0.5,1-1.3,1.7-2.3,2c-1.1,0.4-2.1,0.3-3.1-0.2
		c-0.9-0.4-1.6-1.3-2-2.6l-3.4-10c-0.4-1.1-1-1.9-1.8-2.4c-0.9-0.5-1.8-0.6-2.9-0.2c-1,0.4-1.8,1-2.1,1.9c-0.4,0.9-0.4,1.9,0,3
		l3.7,10.8c0.8,2.3,2,4,3.6,5.1c1.4,1,3.1,1.5,4.9,1.7c1.8,0.2,3.6-0.1,5.3-0.6c1.7-0.6,3.3-1.5,4.6-2.7
		C104.4,160.7,105.4,159.3,106,157.7z"/>
	<path fill="#FFFFFF" d="M117,138.4c0.4-0.6,1-1,1.7-1.2c1.2-0.4,2.3-0.3,3.3,0.3c1,0.6,1.6,1.5,2.1,2.7l3.5,10.3
		c0.4,1.1,1,1.9,1.8,2.4c0.9,0.5,1.8,0.6,2.8,0.3c1.1-0.4,1.8-1,2.2-1.9c0.4-0.9,0.4-1.9,0-3l-4-11.9c-0.5-1.5-1.1-2.7-1.8-3.6
		c-0.7-0.9-1.6-1.6-2.9-2.1c-2.1-0.8-4.3-0.8-6.7,0c-1.3,0.4-2.3,1-3.2,1.7c-0.8,0.7-1.6,1.7-2.2,2.9c-1.2-1.4-2.5-1.8-4.1-1.2
		c-1,0.4-1.7,1.1-2,2c-0.3,1-0.3,2,0.1,3.1l5.5,16.3c0.4,1.1,1,1.9,1.8,2.4c0.9,0.5,1.8,0.6,2.8,0.3c1.1-0.4,1.8-1,2.2-1.9
		c0.4-0.9,0.4-1.9,0-3l-3.6-10.6c-0.2-0.7-0.3-1.4-0.2-2.1C116.2,139.6,116.5,139,117,138.4z"/>
	<path fill="#FFFFFF" d="M142.3,122.7c-2.5,0.8-4.4,2.4-5.7,4.7c-0.9,1.5-1.4,3.2-1.6,5.1c-0.2,1.9,0,3.7,0.5,5.3
		c1.1,3.3,2.9,5.8,5.4,7.7c1.4,1,2.8,1.6,4.4,2c1.6,0.3,3.2,0.2,4.7-0.3c1.3-0.4,2.4-1,3.2-1.8s1.4-1.8,1.8-3c0.6,0.8,1.3,1.3,2,1.6
		c0.7,0.3,1.4,0.3,2.3,0c1.1-0.4,1.8-1,2.1-2c0.3-0.9,0.3-2-0.1-3.1l-9-26.7c-0.4-1.1-1-1.9-1.8-2.4c-0.8-0.5-1.8-0.6-2.8-0.2
		c-1.1,0.4-1.8,1-2.2,1.9c-0.4,0.9-0.4,1.9,0,3l2.8,8.4C146.1,122.2,144.1,122.1,142.3,122.7z M147.9,128.5c0.9,0.3,1.7,0.9,2.3,1.7
		c0.7,0.8,1.1,1.6,1.5,2.6c0.3,0.9,0.5,1.9,0.4,3c0,1-0.3,2-0.8,2.8c-0.5,0.8-1.2,1.4-2.2,1.7c-1.4,0.5-2.8,0.3-4.1-0.6
		s-2.1-2.1-2.6-3.6c-0.3-1-0.5-2-0.4-3c0.1-1,0.4-1.9,0.9-2.8c0.5-0.8,1.3-1.4,2.3-1.7C146.1,128.1,147,128.1,147.9,128.5z"/>
	<path fill="#FFFFFF" d="M187.7,128.6c-0.2-0.5-0.4-0.9-0.9-1.2c-0.4-0.3-0.9-0.6-1.4-0.7c-0.5-0.1-1.1-0.1-1.5,0.1
		c-0.5,0.2-0.9,0.5-1.2,0.8l-1.6,1.6c-1,1-2.2,1.8-3.5,2.2c-1.2,0.4-2.4,0.4-3.6,0c-1.1-0.3-2.1-1.1-3-2.3l12.7-4.3
		c1-0.4,1.7-0.9,2-1.5c0.3-0.6,0.2-1.5-0.1-2.6c-0.7-2-1.8-3.7-3.4-5.2c-1.6-1.4-3.4-2.4-5.5-2.8c-2.1-0.4-4.1-0.3-6.2,0.4
		c-2.2,0.7-4,1.9-5.4,3.6c-1.4,1.7-2.3,3.6-2.8,5.8c-0.4,2.2-0.2,4.4,0.5,6.6c1.1,3.3,2.8,5.6,5.2,7.1c1.7,1,3.5,1.6,5.4,1.8
		c1.9,0.2,3.8-0.1,5.7-0.7c2.9-1,5.2-2.5,7-4.5C187.6,131.4,188.1,129.9,187.7,128.6z M172.2,118.8c2.4-0.8,4.4,0.1,6.1,2.7
		l-9.2,3.1C169,121.5,170.1,119.5,172.2,118.8z"/>
	<path fill="#FFFFFF" d="M210,126.2c0.7,0.3,1.4,0.3,2.3,0c1.1-0.4,1.8-1,2.1-2c0.3-0.9,0.3-2-0.1-3.1l-9-26.7
		c-0.4-1.1-1-1.9-1.8-2.4c-0.8-0.5-1.8-0.6-2.8-0.2c-1.1,0.4-1.8,1-2.2,1.9c-0.4,0.9-0.4,1.9,0,3l2.8,8.4c-2.3-0.9-4.3-1-6.1-0.4
		c-2.5,0.8-4.4,2.4-5.7,4.7c-0.9,1.5-1.4,3.2-1.6,5.1c-0.2,1.9,0,3.7,0.5,5.3c1.1,3.3,2.9,5.8,5.4,7.7c1.4,1,2.8,1.6,4.4,2
		c1.6,0.3,3.2,0.2,4.7-0.3c1.3-0.4,2.4-1,3.2-1.8c0.8-0.8,1.4-1.8,1.8-3C208.7,125.4,209.3,125.9,210,126.2z M204.3,120.6
		c-0.5,0.8-1.2,1.4-2.2,1.7c-1.4,0.5-2.8,0.3-4.1-0.6c-1.3-0.9-2.1-2.1-2.6-3.6c-0.3-1-0.5-2-0.4-3c0.1-1,0.4-1.9,0.9-2.8
		c0.5-0.8,1.3-1.4,2.3-1.7c1-0.3,1.9-0.3,2.8,0c0.9,0.3,1.7,0.9,2.3,1.7c0.7,0.8,1.1,1.6,1.5,2.6c0.3,0.9,0.5,1.9,0.4,3
		C205.1,118.9,204.8,119.8,204.3,120.6z"/>
	<path fill="#FFFFFF" d="M189.2,154c0.9-1.4,1.8-2.8,2.3-4.5c0.2-0.7,0.3-1.5,0-2.2c-0.6-1.4-2.1-2-3.8-1.8
		c-1.8,0.3-3.2,1.2-4.5,2.3c-3,2.5-5.3,5.6-7.5,8.7c-5.6,7.8-10.3,16.1-14.9,24.5c-2.7,5-5.4,10-7.8,15.1c-0.2,0.4-0.4,0.4-0.7,0.3
		c-4.3-1-8.6-2-13.1-2.5c-2.3-0.2-4.6-0.4-6.8,0.2c-0.3,0.1-0.6,0.1-1,0.2c-1.8,0.6-2.9,2.1-3,3.9c0,1.2,0.3,2.1,1.4,2.7
		c6,3.2,11.6,7,16.7,11.5c4.7,4.1,9,8.4,13.3,12.9c0.7,0.8,1.5,1.3,2.6,1c1.1-0.3,1.4-1.2,1.6-2.3c1.6-11.8,4.1-23.4,8-34.8
		c2.5-7.4,5.5-14.5,9.1-21.4C183.5,163.2,186.3,158.6,189.2,154z"/>
</g>
</svg>
